<svg width="2761" height="194" viewBox="0 0 2761 194" fill="none" xmlns="http://www.w3.org/2000/svg">
<path d="M1135.4 49.6C1149 49.6 1159.93 53.8 1168.2 62.2C1176.6 70.4667 1180.8 82.0667 1180.8 97V162H1152.8V100.8C1152.8 92.1333 1150.6 85.5333 1146.2 81C1141.8 76.3333 1135.8 74 1128.2 74C1120.6 74 1114.53 76.3333 1110 81C1105.6 85.5333 1103.4 92.1333 1103.4 100.8V162H1075.4V100.8C1075.4 92.1333 1073.2 85.5333 1068.8 81C1064.4 76.3333 1058.4 74 1050.8 74C1043.07 74 1036.93 76.3333 1032.4 81C1028 85.5333 1025.8 92.1333 1025.8 100.8V162H997.8V51.2H1025.8V64.6C1029.4 59.9333 1034 56.2667 1039.6 53.6C1045.33 50.9333 1051.6 49.6 1058.4 49.6C1067.07 49.6 1074.8 51.4667 1081.6 55.2C1088.4 58.8 1093.67 64 1097.4 70.8C1101 64.4 1106.2 59.2667 1113 55.4C1119.93 51.5333 1127.4 49.6 1135.4 49.6ZM1311.97 51.2V162H1283.77V148C1280.17 152.8 1275.44 156.6 1269.57 159.4C1263.84 162.067 1257.57 163.4 1250.77 163.4C1242.1 163.4 1234.44 161.6 1227.77 158C1221.1 154.267 1215.84 148.867 1211.97 141.8C1208.24 134.6 1206.37 126.067 1206.37 116.2V51.2H1234.37V112.2C1234.37 121 1236.57 127.8 1240.97 132.6C1245.37 137.267 1251.37 139.6 1258.97 139.6C1266.7 139.6 1272.77 137.267 1277.17 132.6C1281.57 127.8 1283.77 121 1283.77 112.2V51.2H1311.97ZM1367.6 14V162H1339.6V14H1367.6ZM1427.86 74.2V127.8C1427.86 131.533 1428.73 134.267 1430.46 136C1432.33 137.6 1435.39 138.4 1439.66 138.4H1452.66V162H1435.06C1411.46 162 1399.66 150.533 1399.66 127.6V74.2H1386.46V51.2H1399.66V23.8H1427.86V51.2H1452.66V74.2H1427.86ZM1487 38C1482.07 38 1477.93 36.4667 1474.6 33.4C1471.4 30.2 1469.8 26.2667 1469.8 21.6C1469.8 16.9333 1471.4 13.0667 1474.6 9.99999C1477.93 6.79999 1482.07 5.19999 1487 5.19999C1491.93 5.19999 1496 6.79999 1499.2 9.99999C1502.53 13.0667 1504.2 16.9333 1504.2 21.6C1504.2 26.2667 1502.53 30.2 1499.2 33.4C1496 36.4667 1491.93 38 1487 38ZM1500.8 51.2V162H1472.8V51.2H1500.8ZM1521.26 106.6C1521.26 95.1333 1523.6 85.1333 1528.26 76.6C1532.93 67.9333 1539.4 61.2667 1547.66 56.6C1555.93 51.8 1565.4 49.4 1576.06 49.4C1589.8 49.4 1601.13 52.8667 1610.06 59.8C1619.13 66.6 1625.2 76.2 1628.26 88.6H1598.06C1596.46 83.8 1593.73 80.0667 1589.86 77.4C1586.13 74.6 1581.46 73.2 1575.86 73.2C1567.86 73.2 1561.53 76.1333 1556.86 82C1552.2 87.7333 1549.86 95.9333 1549.86 106.6C1549.86 117.133 1552.2 125.333 1556.86 131.2C1561.53 136.933 1567.86 139.8 1575.86 139.8C1587.2 139.8 1594.6 134.733 1598.06 124.6H1628.26C1625.2 136.6 1619.13 146.133 1610.06 153.2C1601 160.267 1589.66 163.8 1576.06 163.8C1565.4 163.8 1555.93 161.467 1547.66 156.8C1539.4 152 1532.93 145.333 1528.26 136.8C1523.6 128.133 1521.26 118.067 1521.26 106.6ZM1711.18 49.6C1719.58 49.6 1727.04 51.4667 1733.58 55.2C1740.11 58.8 1745.18 64.2 1748.78 71.4C1752.51 78.4667 1754.38 87 1754.38 97V162H1726.38V100.8C1726.38 92 1724.18 85.2667 1719.78 80.6C1715.38 75.8 1709.38 73.4 1701.78 73.4C1694.04 73.4 1687.91 75.8 1683.38 80.6C1678.98 85.2667 1676.78 92 1676.78 100.8V162H1648.78V14H1676.78V65C1680.38 60.2 1685.18 56.4667 1691.18 53.8C1697.18 51 1703.84 49.6 1711.18 49.6ZM1773.8 106.2C1773.8 95 1776 85.0667 1780.4 76.4C1784.94 67.7333 1791 61.0667 1798.6 56.4C1806.34 51.7333 1814.94 49.4 1824.4 49.4C1832.67 49.4 1839.87 51.0667 1846 54.4C1852.27 57.7333 1857.27 61.9333 1861 67V51.2H1889.2V162H1861V145.8C1857.4 151 1852.4 155.333 1846 158.8C1839.74 162.133 1832.47 163.8 1824.2 163.8C1814.87 163.8 1806.34 161.4 1798.6 156.6C1791 151.8 1784.94 145.067 1780.4 136.4C1776 127.6 1773.8 117.533 1773.8 106.2ZM1861 106.6C1861 99.8 1859.67 94 1857 89.2C1854.34 84.2667 1850.74 80.5333 1846.2 78C1841.67 75.3333 1836.8 74 1831.6 74C1826.4 74 1821.6 75.2667 1817.2 77.8C1812.8 80.3333 1809.2 84.0667 1806.4 89C1803.74 93.8 1802.4 99.5333 1802.4 106.2C1802.4 112.867 1803.74 118.733 1806.4 123.8C1809.2 128.733 1812.8 132.533 1817.2 135.2C1821.74 137.867 1826.54 139.2 1831.6 139.2C1836.8 139.2 1841.67 137.933 1846.2 135.4C1850.74 132.733 1854.34 129 1857 124.2C1859.67 119.267 1861 113.4 1861 106.6ZM1930.75 38C1925.82 38 1921.68 36.4667 1918.35 33.4C1915.15 30.2 1913.55 26.2667 1913.55 21.6C1913.55 16.9333 1915.15 13.0667 1918.35 9.99999C1921.68 6.79999 1925.82 5.19999 1930.75 5.19999C1935.68 5.19999 1939.75 6.79999 1942.95 9.99999C1946.28 13.0667 1947.95 16.9333 1947.95 21.6C1947.95 26.2667 1946.28 30.2 1942.95 33.4C1939.75 36.4667 1935.68 38 1930.75 38ZM1944.55 51.2V162H1916.55V51.2H1944.55ZM2033.61 49.6C2046.81 49.6 2057.48 53.8 2065.61 62.2C2073.75 70.4667 2077.81 82.0667 2077.81 97V162H2049.81V100.8C2049.81 92 2047.61 85.2667 2043.21 80.6C2038.81 75.8 2032.81 73.4 2025.21 73.4C2017.48 73.4 2011.35 75.8 2006.81 80.6C2002.41 85.2667 2000.21 92 2000.21 100.8V162H1972.21V51.2H2000.21V65C2003.95 60.2 2008.68 56.4667 2014.41 53.8C2020.28 51 2026.68 49.6 2033.61 49.6ZM2144.9 106.2C2144.9 95 2147.1 85.0667 2151.5 76.4C2156.03 67.7333 2162.16 61.0667 2169.9 56.4C2177.63 51.7333 2186.23 49.4 2195.7 49.4C2202.9 49.4 2209.76 51 2216.3 54.2C2222.83 57.2667 2228.03 61.4 2231.9 66.6V14H2260.3V162H2231.9V145.6C2228.43 151.067 2223.56 155.467 2217.3 158.8C2211.03 162.133 2203.76 163.8 2195.5 163.8C2186.16 163.8 2177.63 161.4 2169.9 156.6C2162.16 151.8 2156.03 145.067 2151.5 136.4C2147.1 127.6 2144.9 117.533 2144.9 106.2ZM2232.1 106.6C2232.1 99.8 2230.76 94 2228.1 89.2C2225.43 84.2667 2221.83 80.5333 2217.3 78C2212.76 75.3333 2207.9 74 2202.7 74C2197.5 74 2192.7 75.2667 2188.3 77.8C2183.9 80.3333 2180.3 84.0667 2177.5 89C2174.83 93.8 2173.5 99.5333 2173.5 106.2C2173.5 112.867 2174.83 118.733 2177.5 123.8C2180.3 128.733 2183.9 132.533 2188.3 135.2C2192.83 137.867 2197.63 139.2 2202.7 139.2C2207.9 139.2 2212.76 137.933 2217.3 135.4C2221.83 132.733 2225.43 129 2228.1 124.2C2230.76 119.267 2232.1 113.4 2232.1 106.6ZM2390.64 104.2C2390.64 108.2 2390.38 111.8 2389.84 115H2308.84C2309.51 123 2312.31 129.267 2317.24 133.8C2322.18 138.333 2328.24 140.6 2335.44 140.6C2345.84 140.6 2353.24 136.133 2357.64 127.2H2387.84C2384.64 137.867 2378.51 146.667 2369.44 153.6C2360.38 160.4 2349.24 163.8 2336.04 163.8C2325.38 163.8 2315.78 161.467 2307.24 156.8C2298.84 152 2292.24 145.267 2287.44 136.6C2282.78 127.933 2280.44 117.933 2280.44 106.6C2280.44 95.1333 2282.78 85.0667 2287.44 76.4C2292.11 67.7333 2298.64 61.0667 2307.04 56.4C2315.44 51.7333 2325.11 49.4 2336.04 49.4C2346.58 49.4 2355.98 51.6667 2364.24 56.2C2372.64 60.7333 2379.11 67.2 2383.64 75.6C2388.31 83.8667 2390.64 93.4 2390.64 104.2ZM2361.64 96.2C2361.51 89 2358.91 83.2667 2353.84 79C2348.78 74.6 2342.58 72.4 2335.24 72.4C2328.31 72.4 2322.44 74.5333 2317.64 78.8C2312.98 82.9333 2310.11 88.7333 2309.04 96.2H2361.64ZM2548.68 49.6C2562.28 49.6 2573.21 53.8 2581.48 62.2C2589.88 70.4667 2594.08 82.0667 2594.08 97V162H2566.08V100.8C2566.08 92.1333 2563.88 85.5333 2559.48 81C2555.08 76.3333 2549.08 74 2541.48 74C2533.88 74 2527.81 76.3333 2523.28 81C2518.88 85.5333 2516.68 92.1333 2516.68 100.8V162H2488.68V100.8C2488.68 92.1333 2486.48 85.5333 2482.08 81C2477.68 76.3333 2471.68 74 2464.08 74C2456.35 74 2450.21 76.3333 2445.68 81C2441.28 85.5333 2439.08 92.1333 2439.08 100.8V162H2411.08V51.2H2439.08V64.6C2442.68 59.9333 2447.28 56.2667 2452.88 53.6C2458.61 50.9333 2464.88 49.6 2471.68 49.6C2480.35 49.6 2488.08 51.4667 2494.88 55.2C2501.68 58.8 2506.95 64 2510.68 70.8C2514.28 64.4 2519.48 59.2667 2526.28 55.4C2533.21 51.5333 2540.68 49.6 2548.68 49.6ZM2669.85 163.8C2659.18 163.8 2649.58 161.467 2641.05 156.8C2632.52 152 2625.78 145.267 2620.85 136.6C2616.05 127.933 2613.65 117.933 2613.65 106.6C2613.65 95.2667 2616.12 85.2667 2621.05 76.6C2626.12 67.9333 2632.98 61.2667 2641.65 56.6C2650.32 51.8 2659.98 49.4 2670.65 49.4C2681.32 49.4 2690.98 51.8 2699.65 56.6C2708.32 61.2667 2715.12 67.9333 2720.05 76.6C2725.12 85.2667 2727.65 95.2667 2727.65 106.6C2727.65 117.933 2725.05 127.933 2719.85 136.6C2714.78 145.267 2707.85 152 2699.05 156.8C2690.38 161.467 2680.65 163.8 2669.85 163.8ZM2669.85 139.4C2674.92 139.4 2679.65 138.2 2684.05 135.8C2688.58 133.267 2692.18 129.533 2694.85 124.6C2697.52 119.667 2698.85 113.667 2698.85 106.6C2698.85 96.0667 2696.05 88 2690.45 82.4C2684.98 76.6667 2678.25 73.8 2670.25 73.8C2662.25 73.8 2655.52 76.6667 2650.05 82.4C2644.72 88 2642.05 96.0667 2642.05 106.6C2642.05 117.133 2644.65 125.267 2649.85 131C2655.18 136.6 2661.85 139.4 2669.85 139.4Z" fill="#0D0D3D"/>
<g clip-path="url(#clip0_137_3)">
<mask id="mask0_137_3" style="mask-type:luminance" maskUnits="userSpaceOnUse" x="-2" y="2" width="931" height="193">
<path d="M928.748 2H-2V194.273H928.748V2Z" fill="white"/>
</mask>
<g mask="url(#mask0_137_3)">
<path d="M116.393 193.166C106.113 193.904 95.814 194.272 85.5148 194.272C68.9508 194.272 52.3868 193.322 35.9585 191.42C16.8924 190.722 1.66667 175.435 0.987816 156.306L0.522316 152.329C-3.02712 120.727 -2.83316 88.8721 1.10419 57.5799L1.43392 54.9415C1.43392 54.9415 1.43392 54.8833 1.43392 54.8445L1.5115 54.3207C3.97477 36.9965 17.6682 23.5523 35.0469 21.5347C68.5241 17.577 102.486 17.577 135.983 21.5347C154.448 23.7269 169.305 39.9453 170.022 58.5887C173.843 89.7063 173.999 121.231 170.488 152.291L170.022 156.326C169.344 173.805 155.417 189.015 138.097 191.071L116.412 193.128L116.393 193.166ZM20.597 57.9679L20.3448 60.0049C16.6015 89.7839 16.4269 120.087 19.7824 150.098L20.3448 155.375C20.5582 164.513 27.8122 171.826 36.8701 172.04L37.7623 172.098C66.7203 175.474 96.1244 175.765 125.141 172.952L135.769 171.826C143.761 170.876 150.413 163.504 150.607 155.375L150.665 154.502L151.17 150.098C154.525 120.416 154.37 90.2689 150.665 60.5287L150.588 59.5781C150.355 50.3049 142.771 41.8853 133.655 40.7989C101.672 37.0159 69.2417 37.0159 37.258 40.7989C28.7432 41.7883 22.0323 48.3261 20.7134 56.8039V57.3277L20.5582 57.9291L20.597 57.9679Z" fill="#0D0D3D"/>
<path d="M82.4687 68.5508H78.2404C72.7126 68.5508 68.2127 73.0322 68.2127 78.5612C68.2127 78.5612 68.2127 83.2366 68.2127 83.6052C68.0188 89.8132 63.5771 94.1588 57.4093 94.2946C56.6916 94.2946 52.4633 94.2946 52.4633 94.2946C46.9355 94.2946 42.4551 98.776 42.4551 104.305V108.554C42.4551 114.083 46.9355 118.564 52.4633 118.564H57.2153C63.7905 118.68 68.1352 122.987 68.2127 129.544C68.2127 130.631 68.2127 134.317 68.2127 134.317C68.2127 139.846 72.7126 144.327 78.2404 144.327H82.4687C87.9965 144.327 92.4769 139.846 92.4769 134.317V130.068C92.4769 124.539 87.9965 120.058 82.4687 120.058C82.4687 120.058 77.6973 120.058 77.484 120.058C71.3161 119.922 66.855 115.596 66.6611 109.388C66.6611 109.155 66.6611 103.859 66.6611 103.762C66.7387 97.224 71.1027 92.9366 77.6779 92.8202C77.8331 92.8202 82.4687 92.8202 82.4687 92.8202C87.9965 92.8202 92.4769 88.3388 92.4769 82.8098V78.5612C92.4769 73.0322 87.9965 68.5508 82.4687 68.5508Z" fill="#0D0D3D"/>
<path d="M114.802 68.2168H113.522C108.359 68.2168 104.173 72.4033 104.173 77.5676V135.283C104.173 140.447 108.359 144.633 113.522 144.633H114.802C119.965 144.633 124.151 140.447 124.151 135.283V77.5676C124.151 72.4033 119.965 68.2168 114.802 68.2168Z" fill="#0D0D3D"/>
<path fill-rule="evenodd" clip-rule="evenodd" d="M410.278 164.687H410.356C422.982 164.687 435.279 160.613 445.384 153.028L447.537 162.96H469.105V2.07617H445.559L444.531 58.957C434.697 51.6238 422.788 47.123 410.278 47.123C377.829 47.123 351.509 73.4488 351.509 105.905C351.509 138.361 377.829 164.687 410.278 164.687ZM410.356 70.6164C428.723 70.6164 443.658 86.408 443.658 105.924C443.658 125.441 428.723 141.232 410.356 141.232C391.968 141.232 377.053 125.441 377.053 105.944C377.053 86.4274 391.988 70.6358 410.356 70.6358V70.6164Z" fill="#0D0D3D"/>
<path fill-rule="evenodd" clip-rule="evenodd" d="M282.033 47.1504H281.955C249.506 47.1504 223.186 73.4762 223.186 105.932C223.186 138.389 247.004 164.714 279.531 164.714C296.444 164.714 308.178 158.06 316.208 149.175L319.234 162.736H340.802V105.932C340.802 73.4762 314.482 47.1504 282.033 47.1504ZM281.955 141.221C263.568 141.221 248.652 125.429 248.652 105.913C248.652 86.3966 263.587 70.605 281.955 70.605C300.323 70.605 315.258 86.3966 315.258 105.894C315.258 125.391 300.323 141.202 281.955 141.202V141.221Z" fill="#0D0D3D"/>
<path fill-rule="evenodd" clip-rule="evenodd" d="M540.075 47.1504H539.997C507.548 47.1504 481.228 73.4762 481.228 105.932C481.228 138.389 505.046 164.714 537.573 164.714C554.486 164.714 566.22 158.06 574.25 149.175L577.276 162.736H598.844V105.932C598.844 73.4762 572.524 47.1504 540.075 47.1504ZM539.997 141.221C521.61 141.221 506.694 125.429 506.694 105.913C506.694 86.3966 521.629 70.605 539.997 70.605C558.365 70.605 573.3 86.3966 573.3 105.894C573.3 125.391 558.365 141.202 539.997 141.202V141.221Z" fill="#0D0D3D"/>
<path d="M811.634 49.0449H786.167V162.729H811.634V49.0449Z" fill="#0D0D3D"/>
<path fill-rule="evenodd" clip-rule="evenodd" d="M798.949 2C796.757 2 794.585 2.4268 792.568 3.261C790.551 4.0952 788.708 5.3174 787.156 6.8694C785.605 8.4214 784.383 10.2644 783.549 12.282C782.715 14.2996 782.288 16.4724 782.288 18.6646C782.288 23.0878 784.034 27.317 787.176 30.4404C790.299 33.5638 794.546 35.3292 798.949 35.3292C803.371 35.3292 807.6 33.5638 810.722 30.4404C813.845 27.317 815.61 23.0878 815.61 18.6646C815.61 16.4724 815.183 14.2996 814.349 12.282C813.515 10.2644 812.293 8.4214 810.742 6.8694C809.19 5.3174 807.367 4.0952 805.33 3.261C803.313 2.4268 801.141 2 798.949 2Z" fill="#0D0D3D"/>
<path d="M878.472 96.205L926.865 45.9202H898.663L851.492 95.9916H851.279V48.9466V2.07617H825.812V162.708H851.279V120.746L861.268 110.871L900.894 162.708H928.746L878.472 96.205Z" fill="#0D0D3D"/>
<path fill-rule="evenodd" clip-rule="evenodd" d="M747.123 52.2318C740.587 48.9338 733.372 47.2266 726.059 47.2266C718.747 47.2266 711.532 48.9338 704.996 52.2318C700.224 54.6762 695.918 57.916 692.233 61.8154C688.548 57.916 684.242 54.6762 679.451 52.2318C672.915 48.9338 665.7 47.2266 658.387 47.2266C651.075 47.2266 643.86 48.9338 637.323 52.2318C629.662 56.1312 623.223 62.0676 618.723 69.4008C614.242 76.734 611.857 85.1536 611.857 93.7478V162.792H637.323V91.7496C637.323 88.9754 637.867 86.24 638.914 83.6792C639.981 81.1184 641.532 78.7904 643.472 76.8504C645.431 74.891 647.758 73.339 650.299 72.2914C652.86 71.2438 655.594 70.7006 658.368 70.7006C661.142 70.7006 663.876 71.2438 666.437 72.2914C668.997 73.339 671.324 74.891 673.264 76.8504C675.223 78.8098 676.775 81.1378 677.822 83.6792C678.869 86.24 679.412 88.9754 679.412 91.7496V162.792H704.879V91.7496C704.879 88.9754 705.422 86.24 706.47 83.6792C707.536 81.1184 709.088 78.7904 711.028 76.8504C712.987 74.891 715.314 73.339 717.855 72.2914C720.415 71.2438 723.15 70.7006 725.924 70.7006C728.697 70.7006 731.432 71.2438 733.992 72.2914C736.553 73.339 738.88 74.891 740.82 76.8504C742.779 78.8098 744.33 81.1378 745.378 83.6792C746.425 86.24 746.968 88.9754 746.968 91.7496V162.792H772.435V93.7478C772.435 85.1536 770.069 76.7146 765.569 69.4008C761.069 62.0676 754.63 56.1312 746.968 52.2318H747.046H747.123Z" fill="#0D0D3D"/>
</g>
</g>
<defs>
<clipPath id="clip0_137_3">
<rect width="931" height="194" fill="white"/>
</clipPath>
</defs>
</svg>
