<svg width="2757" height="389" viewBox="0 0 2757 389" fill="none" xmlns="http://www.w3.org/2000/svg">
<g clip-path="url(#clip0_123_48)">
<mask id="mask0_123_48" style="mask-type:luminance" maskUnits="userSpaceOnUse" x="0" y="0" width="848" height="238">
<path d="M847.98 0H0V237.12H847.98V0Z" fill="white"/>
</mask>
<g mask="url(#mask0_123_48)">
<path d="M335.07 182.641C328.94 182.251 322.96 181.011 317.14 178.911C311.32 176.811 306.19 173.971 301.77 170.401C297.42 166.751 294.16 162.471 291.99 157.571L312.6 148.711C313.61 150.811 315.36 152.871 317.84 154.891C320.4 156.911 323.39 158.581 326.81 159.911C330.23 161.151 333.8 161.781 337.52 161.781C341.24 161.781 344.55 161.271 347.65 160.261C350.83 159.171 353.43 157.541 355.45 155.361C357.47 153.181 358.48 150.581 358.48 147.541C358.48 144.121 357.32 141.471 354.99 139.611C352.74 137.671 349.9 136.191 346.49 135.181C343.07 134.171 339.66 133.201 336.24 132.261C328.63 130.551 321.64 128.221 315.28 125.261C308.99 122.231 303.98 118.381 300.26 113.711C296.53 108.971 294.67 103.171 294.67 96.3309C294.67 88.8609 296.65 82.4109 300.61 76.9709C304.65 71.4509 309.97 67.2109 316.56 64.2609C323.16 61.3009 330.18 59.8309 337.64 59.8309C346.96 59.8309 355.5 61.8109 363.26 65.7809C371.02 69.7509 376.96 75.1909 381.08 82.1109L361.87 93.5409C360.71 91.2109 358.96 89.1109 356.63 87.2409C354.3 85.3709 351.66 83.9009 348.71 82.8109C345.76 81.6409 342.69 80.9809 339.51 80.8309C335.55 80.6709 331.86 81.1409 328.45 82.2309C325.11 83.2409 322.43 84.8709 320.41 87.1309C318.39 89.3909 317.38 92.2609 317.38 95.7609C317.38 99.2609 318.58 101.751 320.99 103.461C323.4 105.091 326.42 106.421 330.07 107.431C333.8 108.441 337.6 109.571 341.48 110.811C348.39 112.991 354.87 115.671 360.93 118.861C366.99 121.971 371.88 125.821 375.6 130.411C379.33 135.001 381.11 140.601 380.96 147.211C380.96 154.521 378.75 160.941 374.32 166.461C369.97 171.981 364.31 176.181 357.32 179.061C350.33 181.941 342.92 183.141 335.08 182.681L335.07 182.641ZM448.22 183.461C437.51 183.461 427.72 180.701 418.87 175.181C410.1 169.661 403.07 162.271 397.79 153.021C392.59 143.691 389.99 133.381 389.99 122.111C389.99 113.561 391.5 105.591 394.53 98.2009C397.56 90.7309 401.71 84.2009 406.99 78.6009C412.35 72.9209 418.56 68.4909 425.62 65.3009C432.69 62.1109 440.22 60.5209 448.21 60.5209C458.92 60.5209 468.67 63.2809 477.44 68.8009C486.29 74.3209 493.32 81.7509 498.52 91.0809C503.8 100.411 506.44 110.751 506.44 122.111C506.44 130.591 504.93 138.521 501.9 145.911C498.87 153.301 494.68 159.831 489.32 165.511C484.04 171.111 477.87 175.501 470.8 178.691C463.81 181.881 456.28 183.471 448.21 183.471L448.22 183.461ZM448.22 159.201C454.66 159.201 460.45 157.491 465.57 154.071C470.69 150.651 474.73 146.141 477.68 140.541C480.71 134.861 482.22 128.721 482.22 122.111C482.22 115.501 480.67 109.121 477.56 103.451C474.53 97.7709 470.46 93.2609 465.33 89.9209C460.21 86.5009 454.5 84.7909 448.21 84.7909C441.92 84.7909 436.06 86.5009 430.86 89.9209C425.74 93.3409 421.66 97.8909 418.63 103.571C415.68 109.251 414.2 115.431 414.2 122.121C414.2 128.811 415.75 135.301 418.86 140.901C421.97 146.501 426.08 150.971 431.2 154.311C436.4 157.581 442.07 159.211 448.2 159.211L448.22 159.201ZM615.7 11.4609H639.92V180.431H615.7V163.281C611.9 169.351 606.93 174.241 600.79 177.981C594.66 181.631 587.48 183.461 579.25 183.461C571.02 183.461 562.87 181.871 555.49 178.681C548.11 175.491 541.59 171.101 535.93 165.501C530.34 159.821 525.95 153.291 522.77 145.901C519.59 138.511 518 130.581 518 122.101C518 113.621 519.59 105.691 522.77 98.3009C525.95 90.8309 530.34 84.3009 535.93 78.7009C541.6 73.0209 548.12 68.5909 555.49 65.4009C562.87 62.2109 570.78 60.6209 579.25 60.6209C587.72 60.6209 594.66 62.4909 600.79 66.2209C606.92 69.8709 611.89 74.7009 615.7 80.6809V11.4609ZM579.48 160.011C586.31 160.011 592.29 158.341 597.41 155.001C602.53 151.581 606.49 146.991 609.29 141.241C612.16 135.491 613.6 129.111 613.6 122.111C613.6 115.111 612.16 108.621 609.29 102.861C606.42 97.1109 602.42 92.5609 597.3 89.2109C592.25 85.7909 586.31 84.0809 579.48 84.0809C572.65 84.0809 566.55 85.7909 560.96 89.2109C555.45 92.6309 551.02 97.2209 547.69 102.971C544.43 108.721 542.8 115.101 542.8 122.101C542.8 129.101 544.47 135.591 547.81 141.351C551.23 147.031 555.69 151.581 561.2 155.001C566.79 158.341 572.88 160.011 579.48 160.011ZM714.4 183.461C703.69 183.461 693.91 180.701 685.05 175.181C676.28 169.661 669.25 162.271 663.97 153.021C658.77 143.691 656.17 133.381 656.17 122.111C656.17 113.561 657.68 105.591 660.71 98.2009C663.74 90.7309 667.89 84.2009 673.17 78.6009C678.53 72.9209 684.74 68.4909 691.8 65.3009C698.87 62.1109 706.4 60.5209 714.39 60.5209C725.1 60.5209 734.85 63.2809 743.62 68.8009C752.47 74.3209 759.5 81.7509 764.7 91.0809C769.98 100.411 772.62 110.751 772.62 122.111C772.62 130.591 771.11 138.521 768.08 145.911C765.05 153.301 760.86 159.831 755.5 165.511C750.22 171.111 744.05 175.501 736.98 178.691C729.99 181.881 722.46 183.471 714.39 183.471L714.4 183.461ZM714.4 159.201C720.84 159.201 726.63 157.491 731.75 154.071C736.87 150.651 740.91 146.141 743.86 140.541C746.89 134.861 748.4 128.721 748.4 122.111C748.4 115.501 746.85 109.121 743.74 103.451C740.71 97.7709 736.64 93.2609 731.51 89.9209C726.39 86.5009 720.68 84.7909 714.39 84.7909C708.1 84.7909 702.24 86.5009 697.04 89.9209C691.92 93.3409 687.84 97.8909 684.81 103.571C681.86 109.251 680.38 115.431 680.38 122.121C680.38 128.811 681.93 135.301 685.04 140.901C688.15 146.501 692.26 150.971 697.38 154.311C702.58 157.581 708.25 159.211 714.38 159.211L714.4 159.201ZM847.99 88.0509H826.66L826.54 180.431H802.32L802.44 88.0509H781.39V63.7909H802.44L802.32 27.1609H826.54L826.66 63.7909H847.99V88.0509Z" fill="#191D50"/>
<path d="M335.07 182.641C328.94 182.251 322.96 181.011 317.14 178.911C311.32 176.811 306.19 173.971 301.77 170.401C297.42 166.751 294.16 162.471 291.99 157.571L312.6 148.711C313.61 150.811 315.36 152.871 317.84 154.891C320.4 156.911 323.39 158.581 326.81 159.911C330.23 161.151 333.8 161.781 337.52 161.781C341.24 161.781 344.55 161.271 347.65 160.261C350.83 159.171 353.43 157.541 355.45 155.361C357.47 153.181 358.48 150.581 358.48 147.541C358.48 144.121 357.32 141.471 354.99 139.611C352.74 137.671 349.9 136.191 346.49 135.181C343.07 134.171 339.66 133.201 336.24 132.261C328.63 130.551 321.64 128.221 315.28 125.261C308.99 122.231 303.98 118.381 300.26 113.711C296.53 108.971 294.67 103.171 294.67 96.3309C294.67 88.8609 296.65 82.4109 300.61 76.9709C304.65 71.4509 309.97 67.2109 316.56 64.2609C323.16 61.3009 330.18 59.8309 337.64 59.8309C346.96 59.8309 355.5 61.8109 363.26 65.7809C371.02 69.7509 376.96 75.1909 381.08 82.1109L361.87 93.5409C360.71 91.2109 358.96 89.1109 356.63 87.2409C354.3 85.3709 351.66 83.9009 348.71 82.8109C345.76 81.6409 342.69 80.9809 339.51 80.8309C335.55 80.6709 331.86 81.1409 328.45 82.2309C325.11 83.2409 322.43 84.8709 320.41 87.1309C318.39 89.3909 317.38 92.2609 317.38 95.7609C317.38 99.2609 318.58 101.751 320.99 103.461C323.4 105.091 326.42 106.421 330.07 107.431C333.8 108.441 337.6 109.571 341.48 110.811C348.39 112.991 354.87 115.671 360.93 118.861C366.99 121.971 371.88 125.821 375.6 130.411C379.33 135.001 381.11 140.601 380.96 147.211C380.96 154.521 378.75 160.941 374.32 166.461C369.97 171.981 364.31 176.181 357.32 179.061C350.33 181.941 342.92 183.141 335.08 182.681L335.07 182.641ZM448.22 183.461C437.51 183.461 427.72 180.701 418.87 175.181C410.1 169.661 403.07 162.271 397.79 153.021C392.59 143.691 389.99 133.381 389.99 122.111C389.99 113.561 391.5 105.591 394.53 98.2009C397.56 90.7309 401.71 84.2009 406.99 78.6009C412.35 72.9209 418.56 68.4909 425.62 65.3009C432.69 62.1109 440.22 60.5209 448.21 60.5209C458.92 60.5209 468.67 63.2809 477.44 68.8009C486.29 74.3209 493.32 81.7509 498.52 91.0809C503.8 100.411 506.44 110.751 506.44 122.111C506.44 130.591 504.93 138.521 501.9 145.911C498.87 153.301 494.68 159.831 489.32 165.511C484.04 171.111 477.87 175.501 470.8 178.691C463.81 181.881 456.28 183.471 448.21 183.471L448.22 183.461ZM448.22 159.201C454.66 159.201 460.45 157.491 465.57 154.071C470.69 150.651 474.73 146.141 477.68 140.541C480.71 134.861 482.22 128.721 482.22 122.111C482.22 115.501 480.67 109.121 477.56 103.451C474.53 97.7709 470.46 93.2609 465.33 89.9209C460.21 86.5009 454.5 84.7909 448.21 84.7909C441.92 84.7909 436.06 86.5009 430.86 89.9209C425.74 93.3409 421.66 97.8909 418.63 103.571C415.68 109.251 414.2 115.431 414.2 122.121C414.2 128.811 415.75 135.301 418.86 140.901C421.97 146.501 426.08 150.971 431.2 154.311C436.4 157.581 442.07 159.211 448.2 159.211L448.22 159.201ZM615.7 11.4609H639.92V180.431H615.7V163.281C611.9 169.351 606.93 174.241 600.79 177.981C594.66 181.631 587.48 183.461 579.25 183.461C571.02 183.461 562.87 181.871 555.49 178.681C548.11 175.491 541.59 171.101 535.93 165.501C530.34 159.821 525.95 153.291 522.77 145.901C519.59 138.511 518 130.581 518 122.101C518 113.621 519.59 105.691 522.77 98.3009C525.95 90.8309 530.34 84.3009 535.93 78.7009C541.6 73.0209 548.12 68.5909 555.49 65.4009C562.87 62.2109 570.78 60.6209 579.25 60.6209C587.72 60.6209 594.66 62.4909 600.79 66.2209C606.92 69.8709 611.89 74.7009 615.7 80.6809V11.4609ZM579.48 160.011C586.31 160.011 592.29 158.341 597.41 155.001C602.53 151.581 606.49 146.991 609.29 141.241C612.16 135.491 613.6 129.111 613.6 122.111C613.6 115.111 612.16 108.621 609.29 102.861C606.42 97.1109 602.42 92.5609 597.3 89.2109C592.25 85.7909 586.31 84.0809 579.48 84.0809C572.65 84.0809 566.55 85.7909 560.96 89.2109C555.45 92.6309 551.02 97.2209 547.69 102.971C544.43 108.721 542.8 115.101 542.8 122.101C542.8 129.101 544.47 135.591 547.81 141.351C551.23 147.031 555.69 151.581 561.2 155.001C566.79 158.341 572.88 160.011 579.48 160.011ZM714.4 183.461C703.69 183.461 693.91 180.701 685.05 175.181C676.28 169.661 669.25 162.271 663.97 153.021C658.77 143.691 656.17 133.381 656.17 122.111C656.17 113.561 657.68 105.591 660.71 98.2009C663.74 90.7309 667.89 84.2009 673.17 78.6009C678.53 72.9209 684.74 68.4909 691.8 65.3009C698.87 62.1109 706.4 60.5209 714.39 60.5209C725.1 60.5209 734.85 63.2809 743.62 68.8009C752.47 74.3209 759.5 81.7509 764.7 91.0809C769.98 100.411 772.62 110.751 772.62 122.111C772.62 130.591 771.11 138.521 768.08 145.911C765.05 153.301 760.86 159.831 755.5 165.511C750.22 171.111 744.05 175.501 736.98 178.691C729.99 181.881 722.46 183.471 714.39 183.471L714.4 183.461ZM714.4 159.201C720.84 159.201 726.63 157.491 731.75 154.071C736.87 150.651 740.91 146.141 743.86 140.541C746.89 134.861 748.4 128.721 748.4 122.111C748.4 115.501 746.85 109.121 743.74 103.451C740.71 97.7709 736.64 93.2609 731.51 89.9209C726.39 86.5009 720.68 84.7909 714.39 84.7909C708.1 84.7909 702.24 86.5009 697.04 89.9209C691.92 93.3409 687.84 97.8909 684.81 103.571C681.86 109.251 680.38 115.431 680.38 122.121C680.38 128.811 681.93 135.301 685.04 140.901C688.15 146.501 692.26 150.971 697.38 154.311C702.58 157.581 708.25 159.211 714.38 159.211L714.4 159.201ZM847.99 88.0509H826.66L826.54 180.431H802.32L802.44 88.0509H781.39V63.7909H802.44L802.32 27.1609H826.54L826.66 63.7909H847.99V88.0509Z" fill="#191D50"/>
<path d="M77.0902 179.349C64.7202 179.349 53.9702 172.439 46.8302 159.879C40.8602 149.369 37.7002 135.429 37.7002 119.559C37.7002 103.689 40.8502 89.6894 46.8002 79.0894C53.9502 66.3694 64.7002 59.3594 77.0902 59.3594C101.08 59.3594 130.37 91.2694 136.05 111.309C137.47 116.319 137.47 122.799 136.05 127.809C130.41 147.689 101.14 179.349 77.0902 179.349ZM77.0902 83.3594C67.5902 83.3594 61.7002 102.149 61.7002 119.559C61.7002 141.959 69.5202 155.349 77.0902 155.349C80.9002 155.349 88.6302 151.649 97.3102 143.399C106.13 135.009 111.61 126.049 112.96 121.269C113.17 120.509 113.17 118.629 112.96 117.859C109.21 104.639 87.0902 83.3694 77.0902 83.3694V83.3594Z" fill="url(#paint0_linear_123_48)"/>
<path d="M180.04 131.58C177.36 126.18 174.83 121.09 174.83 119.57C174.83 118.08 177.33 113.04 179.98 107.71L181.1 105.46C181.79 104.07 183.58 100.51 185.99 95.7205C195.47 76.8905 205.55 56.8205 211.01 45.4805H184.29C177.82 58.5805 169.24 75.6105 164.55 84.9305C162.1 89.7905 160.29 93.4005 159.59 94.8105L158.49 97.0405C148.24 117.68 148.24 121.49 158.55 142.25L159.59 144.35C161.51 148.23 174.6 175.72 183.18 194.01H209.66C202.09 177.58 183.58 138.7 181.1 133.7L180.05 131.58H180.04Z" fill="url(#paint1_linear_123_48)"/>
<path d="M238.55 237.12H6.69C3 237.12 0 234.12 0 230.43V6.69C0 3 3 0 6.69 0H238.55C242.24 0 245.24 3 245.24 6.69V230.44C245.24 234.13 242.24 237.13 238.55 237.13V237.12ZM13.38 223.74H231.86V13.38H13.38V223.75V223.74Z" fill="url(#paint2_linear_123_48)"/>
</g>
</g>
<path d="M1077.97 63.98C1092.25 63.98 1103.73 68.39 1112.41 77.21C1121.23 85.89 1125.64 98.07 1125.64 113.75V182H1096.24V117.74C1096.24 108.64 1093.93 101.71 1089.31 96.95C1084.69 92.05 1078.39 89.6 1070.41 89.6C1062.43 89.6 1056.06 92.05 1051.3 96.95C1046.68 101.71 1044.37 108.64 1044.37 117.74V182H1014.97V117.74C1014.97 108.64 1012.66 101.71 1008.04 96.95C1003.42 92.05 997.12 89.6 989.14 89.6C981.02 89.6 974.58 92.05 969.82 96.95C965.2 101.71 962.89 108.64 962.89 117.74V182H933.49V65.66H962.89V79.73C966.67 74.83 971.5 70.98 977.38 68.18C983.4 65.38 989.98 63.98 997.12 63.98C1006.22 63.98 1014.34 65.94 1021.48 69.86C1028.62 73.64 1034.15 79.1 1038.07 86.24C1041.85 79.52 1047.31 74.13 1054.45 70.07C1061.73 66.01 1069.57 63.98 1077.97 63.98ZM1263.37 65.66V182H1233.76V167.3C1229.98 172.34 1225.01 176.33 1218.85 179.27C1212.83 182.07 1206.25 183.47 1199.11 183.47C1190.01 183.47 1181.96 181.58 1174.96 177.8C1167.96 173.88 1162.43 168.21 1158.37 160.79C1154.45 153.23 1152.49 144.27 1152.49 133.91V65.66H1181.89V129.71C1181.89 138.95 1184.2 146.09 1188.82 151.13C1193.44 156.03 1199.74 158.48 1207.72 158.48C1215.84 158.48 1222.21 156.03 1226.83 151.13C1231.45 146.09 1233.76 138.95 1233.76 129.71V65.66H1263.37ZM1321.78 26.6V182H1292.38V26.6H1321.78ZM1385.05 89.81V146.09C1385.05 150.01 1385.96 152.88 1387.78 154.7C1389.74 156.38 1392.96 157.22 1397.44 157.22H1411.09V182H1392.61C1367.83 182 1355.44 169.96 1355.44 145.88V89.81H1341.58V65.66H1355.44V36.89H1385.05V65.66H1411.09V89.81H1385.05ZM1447.15 51.8C1441.97 51.8 1437.63 50.19 1434.13 46.97C1430.77 43.61 1429.09 39.48 1429.09 34.58C1429.09 29.68 1430.77 25.62 1434.13 22.4C1437.63 19.04 1441.97 17.36 1447.15 17.36C1452.33 17.36 1456.6 19.04 1459.96 22.4C1463.46 25.62 1465.21 29.68 1465.21 34.58C1465.21 39.48 1463.46 43.61 1459.96 46.97C1456.6 50.19 1452.33 51.8 1447.15 51.8ZM1461.64 65.66V182H1432.24V65.66H1461.64ZM1483.13 123.83C1483.13 111.79 1485.58 101.29 1490.48 92.33C1495.38 83.23 1502.17 76.23 1510.85 71.33C1519.53 66.29 1529.47 63.77 1540.67 63.77C1555.09 63.77 1566.99 67.41 1576.37 74.69C1585.89 81.83 1592.26 91.91 1595.48 104.93H1563.77C1562.09 99.89 1559.22 95.97 1555.16 93.17C1551.24 90.23 1546.34 88.76 1540.46 88.76C1532.06 88.76 1525.41 91.84 1520.51 98C1515.61 104.02 1513.16 112.63 1513.16 123.83C1513.16 134.89 1515.61 143.5 1520.51 149.66C1525.41 155.68 1532.06 158.69 1540.46 158.69C1552.36 158.69 1560.13 153.37 1563.77 142.73H1595.48C1592.26 155.33 1585.89 165.34 1576.37 172.76C1566.85 180.18 1554.95 183.89 1540.67 183.89C1529.47 183.89 1519.53 181.44 1510.85 176.54C1502.17 171.5 1495.38 164.5 1490.48 155.54C1485.58 146.44 1483.13 135.87 1483.13 123.83ZM1682.54 63.98C1691.36 63.98 1699.2 65.94 1706.06 69.86C1712.92 73.64 1718.24 79.31 1722.02 86.87C1725.94 94.29 1727.9 103.25 1727.9 113.75V182H1698.5V117.74C1698.5 108.5 1696.19 101.43 1691.57 96.53C1686.95 91.49 1680.65 88.97 1672.67 88.97C1664.55 88.97 1658.11 91.49 1653.35 96.53C1648.73 101.43 1646.42 108.5 1646.42 117.74V182H1617.02V26.6H1646.42V80.15C1650.2 75.11 1655.24 71.19 1661.54 68.39C1667.84 65.45 1674.84 63.98 1682.54 63.98ZM1748.29 123.41C1748.29 111.65 1750.6 101.22 1755.22 92.12C1759.98 83.02 1766.35 76.02 1774.33 71.12C1782.45 66.22 1791.48 63.77 1801.42 63.77C1810.1 63.77 1817.66 65.52 1824.1 69.02C1830.68 72.52 1835.93 76.93 1839.85 82.25V65.66H1869.46V182H1839.85V164.99C1836.07 170.45 1830.82 175 1824.1 178.64C1817.52 182.14 1809.89 183.89 1801.21 183.89C1791.41 183.89 1782.45 181.37 1774.33 176.33C1766.35 171.29 1759.98 164.22 1755.22 155.12C1750.6 145.88 1748.29 135.31 1748.29 123.41ZM1839.85 123.83C1839.85 116.69 1838.45 110.6 1835.65 105.56C1832.85 100.38 1829.07 96.46 1824.31 93.8C1819.55 91 1814.44 89.6 1808.98 89.6C1803.52 89.6 1798.48 90.93 1793.86 93.59C1789.24 96.25 1785.46 100.17 1782.52 105.35C1779.72 110.39 1778.32 116.41 1778.32 123.41C1778.32 130.41 1779.72 136.57 1782.52 141.89C1785.46 147.07 1789.24 151.06 1793.86 153.86C1798.62 156.66 1803.66 158.06 1808.98 158.06C1814.44 158.06 1819.55 156.73 1824.31 154.07C1829.07 151.27 1832.85 147.35 1835.65 142.31C1838.45 137.13 1839.85 130.97 1839.85 123.83ZM1913.09 51.8C1907.91 51.8 1903.57 50.19 1900.07 46.97C1896.71 43.61 1895.03 39.48 1895.03 34.58C1895.03 29.68 1896.71 25.62 1900.07 22.4C1903.57 19.04 1907.91 17.36 1913.09 17.36C1918.27 17.36 1922.54 19.04 1925.9 22.4C1929.4 25.62 1931.15 29.68 1931.15 34.58C1931.15 39.48 1929.4 43.61 1925.9 46.97C1922.54 50.19 1918.27 51.8 1913.09 51.8ZM1927.58 65.66V182H1898.18V65.66H1927.58ZM2021.09 63.98C2034.95 63.98 2046.15 68.39 2054.69 77.21C2063.23 85.89 2067.5 98.07 2067.5 113.75V182H2038.1V117.74C2038.1 108.5 2035.79 101.43 2031.17 96.53C2026.55 91.49 2020.25 88.97 2012.27 88.97C2004.15 88.97 1997.71 91.49 1992.95 96.53C1988.33 101.43 1986.02 108.5 1986.02 117.74V182H1956.62V65.66H1986.02V80.15C1989.94 75.11 1994.91 71.19 2000.93 68.39C2007.09 65.45 2013.81 63.98 2021.09 63.98ZM2137.94 123.41C2137.94 111.65 2140.25 101.22 2144.87 92.12C2149.63 83.02 2156.07 76.02 2164.19 71.12C2172.31 66.22 2181.34 63.77 2191.28 63.77C2198.84 63.77 2206.05 65.45 2212.91 68.81C2219.77 72.03 2225.23 76.37 2229.29 81.83V26.6H2259.11V182H2229.29V164.78C2225.65 170.52 2220.54 175.14 2213.96 178.64C2207.38 182.14 2199.75 183.89 2191.07 183.89C2181.27 183.89 2172.31 181.37 2164.19 176.33C2156.07 171.29 2149.63 164.22 2144.87 155.12C2140.25 145.88 2137.94 135.31 2137.94 123.41ZM2229.5 123.83C2229.5 116.69 2228.1 110.6 2225.3 105.56C2222.5 100.38 2218.72 96.46 2213.96 93.8C2209.2 91 2204.09 89.6 2198.63 89.6C2193.17 89.6 2188.13 90.93 2183.51 93.59C2178.89 96.25 2175.11 100.17 2172.17 105.35C2169.37 110.39 2167.97 116.41 2167.97 123.41C2167.97 130.41 2169.37 136.57 2172.17 141.89C2175.11 147.07 2178.89 151.06 2183.51 153.86C2188.27 156.66 2193.31 158.06 2198.63 158.06C2204.09 158.06 2209.2 156.73 2213.96 154.07C2218.72 151.27 2222.5 147.35 2225.3 142.31C2228.1 137.13 2229.5 130.97 2229.5 123.83ZM2395.98 121.31C2395.98 125.51 2395.7 129.29 2395.14 132.65H2310.09C2310.79 141.05 2313.73 147.63 2318.91 152.39C2324.09 157.15 2330.46 159.53 2338.02 159.53C2348.94 159.53 2356.71 154.84 2361.33 145.46H2393.04C2389.68 156.66 2383.24 165.9 2373.72 173.18C2364.2 180.32 2352.51 183.89 2338.65 183.89C2327.45 183.89 2317.37 181.44 2308.41 176.54C2299.59 171.5 2292.66 164.43 2287.62 155.33C2282.72 146.23 2280.27 135.73 2280.27 123.83C2280.27 111.79 2282.72 101.22 2287.62 92.12C2292.52 83.02 2299.38 76.02 2308.2 71.12C2317.02 66.22 2327.17 63.77 2338.65 63.77C2349.71 63.77 2359.58 66.15 2368.26 70.91C2377.08 75.67 2383.87 82.46 2388.63 91.28C2393.53 99.96 2395.98 109.97 2395.98 121.31ZM2365.53 112.91C2365.39 105.35 2362.66 99.33 2357.34 94.85C2352.02 90.23 2345.51 87.92 2337.81 87.92C2330.53 87.92 2324.37 90.16 2319.33 94.64C2314.43 98.98 2311.42 105.07 2310.3 112.91H2365.53ZM2561.92 63.98C2576.2 63.98 2587.68 68.39 2596.36 77.21C2605.18 85.89 2609.59 98.07 2609.59 113.75V182H2580.19V117.74C2580.19 108.64 2577.88 101.71 2573.26 96.95C2568.64 92.05 2562.34 89.6 2554.36 89.6C2546.38 89.6 2540.01 92.05 2535.25 96.95C2530.63 101.71 2528.32 108.64 2528.32 117.74V182H2498.92V117.74C2498.92 108.64 2496.61 101.71 2491.99 96.95C2487.37 92.05 2481.07 89.6 2473.09 89.6C2464.97 89.6 2458.53 92.05 2453.77 96.95C2449.15 101.71 2446.84 108.64 2446.84 117.74V182H2417.44V65.66H2446.84V79.73C2450.62 74.83 2455.45 70.98 2461.33 68.18C2467.35 65.38 2473.93 63.98 2481.07 63.98C2490.17 63.98 2498.29 65.94 2505.43 69.86C2512.57 73.64 2518.1 79.1 2522.02 86.24C2525.8 79.52 2531.26 74.13 2538.4 70.07C2545.68 66.01 2553.52 63.98 2561.92 63.98ZM2689.14 183.89C2677.94 183.89 2667.86 181.44 2658.9 176.54C2649.94 171.5 2642.87 164.43 2637.69 155.33C2632.65 146.23 2630.13 135.73 2630.13 123.83C2630.13 111.93 2632.72 101.43 2637.9 92.33C2643.22 83.23 2650.43 76.23 2659.53 71.33C2668.63 66.29 2678.78 63.77 2689.98 63.77C2701.18 63.77 2711.33 66.29 2720.43 71.33C2729.53 76.23 2736.67 83.23 2741.85 92.33C2747.17 101.43 2749.83 111.93 2749.83 123.83C2749.83 135.73 2747.1 146.23 2741.64 155.33C2736.32 164.43 2729.04 171.5 2719.8 176.54C2710.7 181.44 2700.48 183.89 2689.14 183.89ZM2689.14 158.27C2694.46 158.27 2699.43 157.01 2704.05 154.49C2708.81 151.83 2712.59 147.91 2715.39 142.73C2718.19 137.55 2719.59 131.25 2719.59 123.83C2719.59 112.77 2716.65 104.3 2710.77 98.42C2705.03 92.4 2697.96 89.39 2689.56 89.39C2681.16 89.39 2674.09 92.4 2668.35 98.42C2662.75 104.3 2659.95 112.77 2659.95 123.83C2659.95 134.89 2662.68 143.43 2668.14 149.45C2673.74 155.33 2680.74 158.27 2689.14 158.27Z" fill="#191D50"/>
<path d="M1588.4 383V312H1594.8L1595.8 317.4H1598.4C1603.5 311.9 1607.1 311 1611.1 311C1623.9 311 1632 320.7 1632 338C1632 355.3 1623.9 365 1611.1 365C1607.1 365 1603.5 364.1 1598.4 358.6L1595.9 359.2L1596.4 364V383H1588.4ZM1609 357.2C1618.7 357.2 1623.2 351 1623.2 338C1623.2 325 1618.7 318.8 1609 318.8C1601 318.8 1596.4 323 1596.4 330.8V345.2C1596.4 353 1601 357.2 1609 357.2ZM1668.96 365C1654.26 365 1645.96 355.3 1645.96 338C1645.96 320.7 1654.26 311 1668.96 311C1683.66 311 1691.96 320.7 1691.96 338C1691.96 355.3 1683.66 365 1668.96 365ZM1668.96 357.4C1678.66 357.4 1683.16 351.2 1683.16 338C1683.16 324.8 1678.66 318.6 1668.96 318.6C1659.26 318.6 1654.76 324.8 1654.76 338C1654.76 351.2 1659.26 357.4 1668.96 357.4ZM1707.92 364L1700.12 312H1707.32L1713.62 357H1716.02L1722.62 312H1735.32L1741.92 357H1744.32L1750.62 312H1757.72L1749.92 364H1736.32L1730.12 319H1727.72L1721.52 364H1707.92ZM1789.78 365C1774.98 365 1766.58 355.3 1766.58 338C1766.58 320.7 1775.08 311 1790.08 311C1804.48 311 1812.88 319.7 1810.88 339.1H1775.18C1775.58 351.8 1780.28 357.4 1790.08 357.4C1796.48 357.4 1801.68 355.1 1802.88 349.1H1810.78C1809.68 358.6 1801.58 365 1789.78 365ZM1789.78 318.3C1781.38 318.3 1776.78 323 1775.48 332.2H1802.88C1802.98 323.4 1798.68 318.3 1789.78 318.3ZM1825.54 364V356.8H1841.64V319.2H1827.34V312H1848.04L1849.04 317.4H1851.64C1856.84 311.9 1860.14 311 1865.84 311H1875.04V318.8H1862.94C1854.24 318.8 1849.64 323 1849.64 330.8V356.8H1866.54V364H1825.54ZM1909.7 365C1894.9 365 1886.5 355.3 1886.5 338C1886.5 320.7 1895 311 1910 311C1924.4 311 1932.8 319.7 1930.8 339.1H1895.1C1895.5 351.8 1900.2 357.4 1910 357.4C1916.4 357.4 1921.6 355.1 1922.8 349.1H1930.7C1929.6 358.6 1921.5 365 1909.7 365ZM1909.7 318.3C1901.3 318.3 1896.7 323 1895.4 332.2H1922.8C1922.9 323.4 1918.6 318.3 1909.7 318.3ZM1966.67 365C1953.87 365 1945.77 355.3 1945.77 338C1945.77 320.7 1953.87 311 1966.67 311C1970.67 311 1974.27 311.9 1979.37 317.4L1981.87 316.8L1981.37 312V290H1989.37V364H1982.97L1981.97 358.6H1979.37C1974.27 364.1 1970.67 365 1966.67 365ZM1968.77 357.2C1976.77 357.2 1981.37 353 1981.37 345.2V330.8C1981.37 323 1976.77 318.8 1968.77 318.8C1959.07 318.8 1954.57 325 1954.57 338C1954.57 351 1959.07 357.2 1968.77 357.2ZM2090.79 365C2086.79 365 2083.19 364.1 2078.09 358.6H2075.49L2074.49 364H2068.09V290H2076.09V312L2075.59 316.8L2078.09 317.4C2083.19 311.9 2086.79 311 2090.79 311C2103.59 311 2111.69 320.7 2111.69 338C2111.69 355.3 2103.59 365 2090.79 365ZM2088.69 357.2C2098.39 357.2 2102.89 351 2102.89 338C2102.89 325 2098.39 318.8 2088.69 318.8C2080.69 318.8 2076.09 323 2076.09 330.8V345.2C2076.09 353 2080.69 357.2 2088.69 357.2ZM2128.05 383V375.8H2139.85C2143.65 375.8 2145.25 374.7 2146.35 371.4L2149.45 362H2140.95L2123.95 312H2132.75L2146.75 354.8H2151.85L2164.85 312H2173.35L2153.75 373.4C2151.55 380.3 2147.55 383 2139.65 383H2128.05Z" fill="#0D0D3D"/>
<mask id="mask1_123_48" style="mask-type:luminance" maskUnits="userSpaceOnUse" x="2258" y="281" width="499" height="103">
<path d="M2757 281H2258V383.996H2757V281Z" fill="white"/>
</mask>
<g mask="url(#mask1_123_48)">
<path d="M2321.47 383.402C2315.96 383.797 2310.44 383.994 2304.92 383.994C2296.04 383.994 2287.16 383.485 2278.35 382.467C2268.13 382.092 2259.97 373.904 2259.6 363.657L2259.35 361.527C2257.45 344.598 2257.55 327.534 2259.66 310.772L2259.84 309.358C2259.84 309.358 2259.84 309.327 2259.84 309.306L2259.88 309.026C2261.2 299.746 2268.54 292.544 2277.86 291.463C2295.81 289.343 2314.02 289.343 2331.98 291.463C2341.88 292.637 2349.84 301.325 2350.23 311.312C2352.27 327.981 2352.36 344.868 2350.48 361.506L2350.23 363.667C2349.86 373.031 2342.4 381.178 2333.11 382.28L2321.48 383.381L2321.47 383.402ZM2270.11 310.979L2269.98 312.071C2267.97 328.022 2267.88 344.255 2269.68 360.331L2269.98 363.158C2270.09 368.053 2273.98 371.971 2278.84 372.085L2279.32 372.116C2294.84 373.924 2310.61 374.08 2326.16 372.573L2331.86 371.971C2336.15 371.461 2339.71 367.512 2339.82 363.158L2339.85 362.69L2340.12 360.331C2341.92 344.432 2341.83 328.282 2339.85 312.351L2339.81 311.842C2339.68 306.875 2335.62 302.364 2330.73 301.782C2313.58 299.756 2296.19 299.756 2279.05 301.782C2274.48 302.312 2270.88 305.815 2270.18 310.356V310.636L2270.09 310.959L2270.11 310.979Z" fill="#0D0D3D"/>
<path d="M2303.29 316.648H2301.02C2298.06 316.648 2295.64 319.049 2295.64 322.011C2295.64 322.011 2295.64 324.515 2295.64 324.713C2295.54 328.038 2293.16 330.366 2289.85 330.439C2289.47 330.439 2287.2 330.439 2287.2 330.439C2284.24 330.439 2281.83 332.839 2281.83 335.801V338.077C2281.83 341.039 2284.24 343.439 2287.2 343.439H2289.75C2293.27 343.502 2295.6 345.809 2295.64 349.321C2295.64 349.903 2295.64 351.878 2295.64 351.878C2295.64 354.839 2298.06 357.24 2301.02 357.24H2303.29C2306.25 357.24 2308.65 354.839 2308.65 351.878V349.602C2308.65 346.64 2306.25 344.239 2303.29 344.239C2303.29 344.239 2300.73 344.239 2300.61 344.239C2297.31 344.167 2294.92 341.849 2294.81 338.524C2294.81 338.399 2294.81 335.562 2294.81 335.51C2294.85 332.008 2297.19 329.711 2300.72 329.649C2300.8 329.649 2303.29 329.649 2303.29 329.649C2306.25 329.649 2308.65 327.248 2308.65 324.287V322.011C2308.65 319.049 2306.25 316.648 2303.29 316.648Z" fill="#0D0D3D"/>
<path d="M2320.62 316.471H2319.93C2317.17 316.471 2314.92 318.713 2314.92 321.48V352.396C2314.92 355.163 2317.17 357.405 2319.93 357.405H2320.62C2323.39 357.405 2325.63 355.163 2325.63 352.396V321.48C2325.63 318.713 2323.39 316.471 2320.62 316.471Z" fill="#0D0D3D"/>
<path fill-rule="evenodd" clip-rule="evenodd" d="M2479.03 368.146H2479.08C2485.84 368.146 2492.44 365.963 2497.86 361.9L2499.01 367.221H2510.57V281.039H2497.95L2497.4 311.509C2492.13 307.58 2485.74 305.17 2479.03 305.17C2461.64 305.17 2447.53 319.272 2447.53 336.658C2447.53 354.044 2461.64 368.146 2479.03 368.146ZM2479.08 317.754C2488.92 317.754 2496.93 326.214 2496.93 336.668C2496.93 347.122 2488.92 355.582 2479.08 355.582C2469.22 355.582 2461.22 347.122 2461.22 336.678C2461.22 326.224 2469.23 317.765 2479.08 317.765V317.754Z" fill="#0D0D3D"/>
<path fill-rule="evenodd" clip-rule="evenodd" d="M2410.28 305.186H2410.24C2392.84 305.186 2378.73 319.288 2378.73 336.674C2378.73 354.06 2391.5 368.162 2408.94 368.162C2418 368.162 2424.3 364.597 2428.6 359.838L2430.22 367.102H2441.79V336.674C2441.79 319.288 2427.67 305.186 2410.28 305.186ZM2410.24 355.577C2400.38 355.577 2392.38 347.118 2392.38 336.663C2392.38 326.209 2400.39 317.75 2410.24 317.75C2420.08 317.75 2428.09 326.209 2428.09 336.653C2428.09 347.097 2420.08 355.566 2410.24 355.566V355.577Z" fill="#0D0D3D"/>
<path fill-rule="evenodd" clip-rule="evenodd" d="M2548.62 305.186H2548.58C2531.18 305.186 2517.07 319.288 2517.07 336.674C2517.07 354.06 2529.84 368.162 2547.28 368.162C2556.35 368.162 2562.64 364.597 2566.94 359.838L2568.57 367.102H2580.13V336.674C2580.13 319.288 2566.02 305.186 2548.62 305.186ZM2548.58 355.577C2538.72 355.577 2530.73 347.118 2530.73 336.663C2530.73 326.209 2538.73 317.75 2548.58 317.75C2558.43 317.75 2566.43 326.209 2566.43 336.653C2566.43 347.097 2558.43 355.566 2548.58 355.566V355.577Z" fill="#0D0D3D"/>
<path d="M2694.21 306.201H2680.56V367.099H2694.21V306.201Z" fill="#0D0D3D"/>
<path fill-rule="evenodd" clip-rule="evenodd" d="M2687.41 281C2686.24 281 2685.07 281.229 2683.99 281.675C2682.91 282.122 2681.92 282.777 2681.09 283.608C2680.26 284.44 2679.6 285.427 2679.15 286.508C2678.71 287.589 2678.48 288.752 2678.48 289.927C2678.48 292.296 2679.41 294.562 2681.1 296.235C2682.77 297.908 2685.05 298.854 2687.41 298.854C2689.78 298.854 2692.05 297.908 2693.72 296.235C2695.4 294.562 2696.34 292.296 2696.34 289.927C2696.34 288.752 2696.11 287.589 2695.67 286.508C2695.22 285.427 2694.57 284.44 2693.73 283.608C2692.9 282.777 2691.92 282.122 2690.83 281.675C2689.75 281.229 2688.59 281 2687.41 281Z" fill="#0D0D3D"/>
<path d="M2730.05 331.462L2755.99 304.525H2740.87L2715.58 331.347H2715.47V306.146V281.039H2701.81V367.086H2715.47V344.608L2720.82 339.318L2742.07 367.086H2757L2730.05 331.462Z" fill="#0D0D3D"/>
<path fill-rule="evenodd" clip-rule="evenodd" d="M2659.63 307.908C2656.12 306.141 2652.25 305.227 2648.33 305.227C2644.41 305.227 2640.54 306.141 2637.04 307.908C2634.48 309.217 2632.17 310.953 2630.2 313.041C2628.22 310.953 2625.91 309.217 2623.35 307.908C2619.84 306.141 2615.97 305.227 2612.05 305.227C2608.13 305.227 2604.26 306.141 2600.76 307.908C2596.65 309.997 2593.2 313.177 2590.79 317.105C2588.38 321.033 2587.11 325.543 2587.11 330.147V367.132H2600.76V329.076C2600.76 327.59 2601.05 326.125 2601.61 324.753C2602.18 323.382 2603.02 322.134 2604.06 321.095C2605.11 320.046 2606.35 319.214 2607.72 318.653C2609.09 318.092 2610.55 317.801 2612.04 317.801C2613.53 317.801 2614.99 318.092 2616.37 318.653C2617.74 319.214 2618.99 320.046 2620.03 321.095C2621.08 322.145 2621.91 323.392 2622.47 324.753C2623.03 326.125 2623.32 327.59 2623.32 329.076V367.132H2636.98V329.076C2636.98 327.59 2637.27 326.125 2637.83 324.753C2638.4 323.382 2639.23 322.134 2640.27 321.095C2641.32 320.046 2642.57 319.214 2643.93 318.653C2645.31 318.092 2646.77 317.801 2648.26 317.801C2649.75 317.801 2651.21 318.092 2652.59 318.653C2653.96 319.214 2655.21 320.046 2656.25 321.095C2657.3 322.145 2658.13 323.392 2658.69 324.753C2659.25 326.125 2659.54 327.59 2659.54 329.076V367.132H2673.2V330.147C2673.2 325.543 2671.93 321.023 2669.52 317.105C2667.1 313.177 2663.65 309.997 2659.54 307.908H2659.58H2659.63Z" fill="#0D0D3D"/>
</g>
<defs>
<linearGradient id="paint0_linear_123_48" x1="-32.9798" y1="10.7694" x2="266.16" y2="300.099" gradientUnits="userSpaceOnUse">
<stop offset="0.28" stop-color="#FA337C"/>
<stop offset="0.33" stop-color="#CE3EA4"/>
<stop offset="0.38" stop-color="#A946C5"/>
<stop offset="0.43" stop-color="#8C4CDE"/>
<stop offset="0.47" stop-color="#7851F0"/>
<stop offset="0.52" stop-color="#6C54FB"/>
<stop offset="0.57" stop-color="#6855FF"/>
</linearGradient>
<linearGradient id="paint1_linear_123_48" x1="39.6901" y1="-32.4895" x2="311.07" y2="229.98" gradientUnits="userSpaceOnUse">
<stop offset="0.44" stop-color="#FA337C"/>
<stop offset="0.48" stop-color="#CE3EA4"/>
<stop offset="0.52" stop-color="#A946C5"/>
<stop offset="0.56" stop-color="#8C4CDE"/>
<stop offset="0.6" stop-color="#7851F0"/>
<stop offset="0.63" stop-color="#6C54FB"/>
<stop offset="0.67" stop-color="#6855FF"/>
</linearGradient>
<linearGradient id="paint2_linear_123_48" x1="-11.64" y1="-11.3" x2="287.5" y2="278.03" gradientUnits="userSpaceOnUse">
<stop offset="0.07" stop-color="#FF3379"/>
<stop offset="0.09" stop-color="#F63480"/>
<stop offset="0.24" stop-color="#CB3EA6"/>
<stop offset="0.39" stop-color="#A746C6"/>
<stop offset="0.54" stop-color="#8B4CDF"/>
<stop offset="0.69" stop-color="#7751F0"/>
<stop offset="0.85" stop-color="#6B54FB"/>
<stop offset="1" stop-color="#6855FF"/>
</linearGradient>
<clipPath id="clip0_123_48">
<rect width="848" height="238" fill="white"/>
</clipPath>
</defs>
</svg>
