<svg width="2638" height="324" viewBox="0 0 2638 324" fill="none" xmlns="http://www.w3.org/2000/svg">
<path d="M1275.4 318V247H1281.8L1282.8 252.4H1285.4C1290.5 246.9 1294.1 246 1298.1 246C1310.9 246 1319 255.7 1319 273C1319 290.3 1310.9 300 1298.1 300C1294.1 300 1290.5 299.1 1285.4 293.6L1282.9 294.2L1283.4 299V318H1275.4ZM1296 292.2C1305.7 292.2 1310.2 286 1310.2 273C1310.2 260 1305.7 253.8 1296 253.8C1288 253.8 1283.4 258 1283.4 265.8V280.2C1283.4 288 1288 292.2 1296 292.2ZM1355.96 300C1341.26 300 1332.96 290.3 1332.96 273C1332.96 255.7 1341.26 246 1355.96 246C1370.66 246 1378.96 255.7 1378.96 273C1378.96 290.3 1370.66 300 1355.96 300ZM1355.96 292.4C1365.66 292.4 1370.16 286.2 1370.16 273C1370.16 259.8 1365.66 253.6 1355.96 253.6C1346.26 253.6 1341.76 259.8 1341.76 273C1341.76 286.2 1346.26 292.4 1355.96 292.4ZM1394.92 299L1387.12 247H1394.32L1400.62 292H1403.02L1409.62 247H1422.32L1428.92 292H1431.32L1437.62 247H1444.72L1436.92 299H1423.32L1417.12 254H1414.72L1408.52 299H1394.92ZM1476.78 300C1461.98 300 1453.58 290.3 1453.58 273C1453.58 255.7 1462.08 246 1477.08 246C1491.48 246 1499.88 254.7 1497.88 274.1H1462.18C1462.58 286.8 1467.28 292.4 1477.08 292.4C1483.48 292.4 1488.68 290.1 1489.88 284.1H1497.78C1496.68 293.6 1488.58 300 1476.78 300ZM1476.78 253.3C1468.38 253.3 1463.78 258 1462.48 267.2H1489.88C1489.98 258.4 1485.68 253.3 1476.78 253.3ZM1512.54 299V291.8H1528.64V254.2H1514.34V247H1535.04L1536.04 252.4H1538.64C1543.84 246.9 1547.14 246 1552.84 246H1562.04V253.8H1549.94C1541.24 253.8 1536.64 258 1536.64 265.8V291.8H1553.54V299H1512.54ZM1596.7 300C1581.9 300 1573.5 290.3 1573.5 273C1573.5 255.7 1582 246 1597 246C1611.4 246 1619.8 254.7 1617.8 274.1H1582.1C1582.5 286.8 1587.2 292.4 1597 292.4C1603.4 292.4 1608.6 290.1 1609.8 284.1H1617.7C1616.6 293.6 1608.5 300 1596.7 300ZM1596.7 253.3C1588.3 253.3 1583.7 258 1582.4 267.2H1609.8C1609.9 258.4 1605.6 253.3 1596.7 253.3ZM1653.67 300C1640.87 300 1632.77 290.3 1632.77 273C1632.77 255.7 1640.87 246 1653.67 246C1657.67 246 1661.27 246.9 1666.37 252.4L1668.87 251.8L1668.37 247V225H1676.37V299H1669.97L1668.97 293.6H1666.37C1661.27 299.1 1657.67 300 1653.67 300ZM1655.77 292.2C1663.77 292.2 1668.37 288 1668.37 280.2V265.8C1668.37 258 1663.77 253.8 1655.77 253.8C1646.07 253.8 1641.57 260 1641.57 273C1641.57 286 1646.07 292.2 1655.77 292.2ZM1777.79 300C1773.79 300 1770.19 299.1 1765.09 293.6H1762.49L1761.49 299H1755.09V225H1763.09V247L1762.59 251.8L1765.09 252.4C1770.19 246.9 1773.79 246 1777.79 246C1790.59 246 1798.69 255.7 1798.69 273C1798.69 290.3 1790.59 300 1777.79 300ZM1775.69 292.2C1785.39 292.2 1789.89 286 1789.89 273C1789.89 260 1785.39 253.8 1775.69 253.8C1767.69 253.8 1763.09 258 1763.09 265.8V280.2C1763.09 288 1767.69 292.2 1775.69 292.2ZM1815.05 318V310.8H1826.85C1830.65 310.8 1832.25 309.7 1833.35 306.4L1836.45 297H1827.95L1810.95 247H1819.75L1833.75 289.8H1838.85L1851.85 247H1860.35L1840.75 308.4C1838.55 315.3 1834.55 318 1826.65 318H1815.05Z" fill="#0D0D3D"/>
<mask id="mask0_127_36" style="mask-type:luminance" maskUnits="userSpaceOnUse" x="1945" y="216" width="499" height="103">
<path d="M2444 216H1945V318.996H2444V216Z" fill="white"/>
</mask>
<g mask="url(#mask0_127_36)">
<path d="M2008.47 318.402C2002.96 318.797 1997.44 318.994 1991.92 318.994C1983.04 318.994 1974.16 318.485 1965.35 317.467C1955.13 317.092 1946.97 308.904 1946.6 298.657L1946.35 296.527C1944.45 279.598 1944.55 262.534 1946.66 245.772L1946.84 244.358C1946.84 244.358 1946.84 244.327 1946.84 244.306L1946.88 244.026C1948.2 234.746 1955.54 227.544 1964.86 226.463C1982.81 224.343 2001.02 224.343 2018.98 226.463C2028.88 227.637 2036.84 236.325 2037.23 246.312C2039.27 262.981 2039.36 279.868 2037.48 296.506L2037.23 298.667C2036.86 308.031 2029.4 316.178 2020.11 317.28L2008.48 318.381L2008.47 318.402ZM1957.11 245.979L1956.98 247.071C1954.97 263.022 1954.88 279.255 1956.68 295.331L1956.98 298.158C1957.09 303.053 1960.98 306.971 1965.84 307.085L1966.32 307.116C1981.84 308.924 1997.61 309.08 2013.16 307.573L2018.86 306.971C2023.15 306.461 2026.71 302.512 2026.82 298.158L2026.85 297.69L2027.12 295.331C2028.92 279.432 2028.83 263.282 2026.85 247.351L2026.81 246.842C2026.68 241.875 2022.62 237.364 2017.73 236.782C2000.58 234.756 1983.19 234.756 1966.05 236.782C1961.48 237.312 1957.88 240.815 1957.18 245.356V245.636L1957.09 245.959L1957.11 245.979Z" fill="#0D0D3D"/>
<path d="M1990.29 251.648H1988.02C1985.06 251.648 1982.64 254.049 1982.64 257.011C1982.64 257.011 1982.64 259.515 1982.64 259.713C1982.54 263.038 1980.16 265.366 1976.85 265.439C1976.47 265.439 1974.2 265.439 1974.2 265.439C1971.24 265.439 1968.83 267.839 1968.83 270.801V273.077C1968.83 276.039 1971.24 278.439 1974.2 278.439H1976.75C1980.27 278.502 1982.6 280.809 1982.64 284.321C1982.64 284.903 1982.64 286.878 1982.64 286.878C1982.64 289.839 1985.06 292.24 1988.02 292.24H1990.29C1993.25 292.24 1995.65 289.839 1995.65 286.878V284.602C1995.65 281.64 1993.25 279.239 1990.29 279.239C1990.29 279.239 1987.73 279.239 1987.61 279.239C1984.31 279.167 1981.92 276.849 1981.81 273.524C1981.81 273.399 1981.81 270.562 1981.81 270.51C1981.85 267.008 1984.19 264.711 1987.72 264.649C1987.8 264.649 1990.29 264.649 1990.29 264.649C1993.25 264.649 1995.65 262.248 1995.65 259.287V257.011C1995.65 254.049 1993.25 251.648 1990.29 251.648Z" fill="#0D0D3D"/>
<path d="M2007.62 251.471H2006.93C2004.17 251.471 2001.92 253.713 2001.92 256.48V287.396C2001.92 290.163 2004.17 292.405 2006.93 292.405H2007.62C2010.39 292.405 2012.63 290.163 2012.63 287.396V256.48C2012.63 253.713 2010.39 251.471 2007.62 251.471Z" fill="#0D0D3D"/>
<path fill-rule="evenodd" clip-rule="evenodd" d="M2166.03 303.146H2166.08C2172.84 303.146 2179.44 300.963 2184.86 296.9L2186.01 302.221H2197.57V216.039H2184.95L2184.4 246.509C2179.13 242.58 2172.74 240.17 2166.03 240.17C2148.64 240.17 2134.53 254.272 2134.53 271.658C2134.53 289.044 2148.64 303.146 2166.03 303.146ZM2166.08 252.754C2175.92 252.754 2183.93 261.214 2183.93 271.668C2183.93 282.122 2175.92 290.582 2166.08 290.582C2156.22 290.582 2148.22 282.122 2148.22 271.678C2148.22 261.224 2156.23 252.765 2166.08 252.765V252.754Z" fill="#0D0D3D"/>
<path fill-rule="evenodd" clip-rule="evenodd" d="M2097.28 240.186H2097.24C2079.84 240.186 2065.73 254.288 2065.73 271.674C2065.73 289.06 2078.5 303.162 2095.94 303.162C2105 303.162 2111.3 299.597 2115.6 294.838L2117.22 302.102H2128.79V271.674C2128.79 254.288 2114.67 240.186 2097.28 240.186ZM2097.24 290.577C2087.38 290.577 2079.38 282.118 2079.38 271.663C2079.38 261.209 2087.39 252.75 2097.24 252.75C2107.08 252.75 2115.09 261.209 2115.09 271.653C2115.09 282.097 2107.08 290.566 2097.24 290.566V290.577Z" fill="#0D0D3D"/>
<path fill-rule="evenodd" clip-rule="evenodd" d="M2235.62 240.186H2235.58C2218.18 240.186 2204.07 254.288 2204.07 271.674C2204.07 289.06 2216.84 303.162 2234.28 303.162C2243.35 303.162 2249.64 299.597 2253.94 294.838L2255.57 302.102H2267.13V271.674C2267.13 254.288 2253.02 240.186 2235.62 240.186ZM2235.58 290.577C2225.72 290.577 2217.73 282.118 2217.73 271.663C2217.73 261.209 2225.73 252.75 2235.58 252.75C2245.43 252.75 2253.43 261.209 2253.43 271.653C2253.43 282.097 2245.43 290.566 2235.58 290.566V290.577Z" fill="#0D0D3D"/>
<path d="M2381.21 241.201H2367.56V302.099H2381.21V241.201Z" fill="#0D0D3D"/>
<path fill-rule="evenodd" clip-rule="evenodd" d="M2374.41 216C2373.24 216 2372.07 216.229 2370.99 216.675C2369.91 217.122 2368.92 217.777 2368.09 218.608C2367.26 219.44 2366.6 220.427 2366.15 221.508C2365.71 222.589 2365.48 223.752 2365.48 224.927C2365.48 227.296 2366.41 229.562 2368.1 231.235C2369.77 232.908 2372.05 233.854 2374.41 233.854C2376.78 233.854 2379.05 232.908 2380.72 231.235C2382.4 229.562 2383.34 227.296 2383.34 224.927C2383.34 223.752 2383.11 222.589 2382.67 221.508C2382.22 220.427 2381.57 219.44 2380.73 218.608C2379.9 217.777 2378.92 217.122 2377.83 216.675C2376.75 216.229 2375.59 216 2374.41 216Z" fill="#0D0D3D"/>
<path d="M2417.05 266.462L2442.99 239.525H2427.87L2402.58 266.347H2402.47V241.146V216.039H2388.81V302.086H2402.47V279.608L2407.82 274.318L2429.07 302.086H2444L2417.05 266.462Z" fill="#0D0D3D"/>
<path fill-rule="evenodd" clip-rule="evenodd" d="M2346.63 242.908C2343.12 241.141 2339.25 240.227 2335.33 240.227C2331.41 240.227 2327.54 241.141 2324.04 242.908C2321.48 244.217 2319.17 245.953 2317.2 248.041C2315.22 245.953 2312.91 244.217 2310.35 242.908C2306.84 241.141 2302.97 240.227 2299.05 240.227C2295.13 240.227 2291.26 241.141 2287.76 242.908C2283.65 244.997 2280.2 248.177 2277.79 252.105C2275.38 256.033 2274.11 260.543 2274.11 265.147V302.132H2287.76V264.076C2287.76 262.59 2288.05 261.125 2288.61 259.753C2289.18 258.382 2290.02 257.134 2291.06 256.095C2292.11 255.046 2293.35 254.214 2294.72 253.653C2296.09 253.092 2297.55 252.801 2299.04 252.801C2300.53 252.801 2301.99 253.092 2303.37 253.653C2304.74 254.214 2305.99 255.046 2307.03 256.095C2308.08 257.145 2308.91 258.392 2309.47 259.753C2310.03 261.125 2310.32 262.59 2310.32 264.076V302.132H2323.98V264.076C2323.98 262.59 2324.27 261.125 2324.83 259.753C2325.4 258.382 2326.23 257.134 2327.27 256.095C2328.32 255.046 2329.57 254.214 2330.93 253.653C2332.31 253.092 2333.77 252.801 2335.26 252.801C2336.75 252.801 2338.21 253.092 2339.59 253.653C2340.96 254.214 2342.21 255.046 2343.25 256.095C2344.3 257.145 2345.13 258.392 2345.69 259.753C2346.25 261.125 2346.54 262.59 2346.54 264.076V302.132H2360.2V265.147C2360.2 260.543 2358.93 256.023 2356.52 252.105C2354.1 248.177 2350.65 244.997 2346.54 242.908H2346.58H2346.63Z" fill="#0D0D3D"/>
</g>
<path d="M996.7 52.94C1019.01 52.94 1031.2 66.28 1031.2 90.66V173H1016.25V93.88C1016.25 79.16 1012.8 66.05 993.48 66.05C972.78 66.05 960.59 81.92 960.59 98.94V173H945.64V93.88C945.64 79.16 942.19 66.05 922.64 66.05C902.17 66.05 889.75 81.92 889.75 98.94V173H874.8V55.7H889.75V72.26H890.21C896.42 62.83 907.46 52.94 925.86 52.94C942.42 52.94 953 60.53 957.37 74.56H957.83C965.42 62.83 978.07 52.94 996.7 52.94ZM1136.06 129.76V55.7H1151.01V173H1136.06V156.44H1135.6C1128.93 166.1 1116.28 175.76 1095.35 175.76C1074.42 175.76 1056.94 164.03 1056.94 138.04V55.7H1071.89V134.82C1071.89 149.77 1078.79 162.65 1099.03 162.65C1121.34 162.65 1136.06 147.01 1136.06 129.76ZM1193.65 173H1178.7V8.54999H1193.65V173ZM1266.23 55.7V68.81H1242.54V142.87C1242.54 157.36 1245.76 160.81 1257.26 160.81C1260.94 160.81 1262.78 160.58 1266.23 160.35V173C1261.63 173.69 1258.87 173.92 1255.19 173.92C1238.17 173.92 1227.59 168.17 1227.59 142.64V68.81H1210.34V55.7H1227.59V16.6H1242.54V55.7H1266.23ZM1302.63 32.24H1283.31V12.92H1302.63V32.24ZM1300.56 173H1285.61V55.7H1300.56V173ZM1377.74 175.99C1344.16 175.99 1321.62 151.15 1321.62 114.35C1321.62 77.78 1344.16 52.94 1377.74 52.94C1406.26 52.94 1425.58 72.03 1428.11 96.87H1412.47C1411.55 83.76 1402.12 66.05 1377.74 66.05C1348.99 66.05 1337.26 90.43 1337.26 114.35C1337.26 138.5 1348.99 163.11 1377.74 163.11C1402.35 163.11 1411.55 145.4 1412.47 131.14H1428.11C1426.5 156.44 1406.26 175.99 1377.74 175.99ZM1503.89 52.94C1524.82 52.94 1542.3 64.67 1542.3 90.66V173H1527.35V93.88C1527.35 78.93 1520.45 66.05 1500.21 66.05C1477.9 66.05 1463.18 81.69 1463.18 98.94V173H1448.23V8.54999H1463.18V72.49H1463.64C1470.31 62.83 1482.96 52.94 1503.89 52.94ZM1601.27 175.99C1577.81 175.99 1562.86 162.88 1562.86 143.33C1562.86 118.03 1580.8 109.98 1611.16 104.69C1630.48 101.24 1642.9 99.86 1642.9 85.83C1642.9 73.87 1635.08 65.82 1616.22 65.82C1593.45 65.82 1585.4 73.87 1584.25 91.12H1568.38C1569.53 70.42 1582.64 52.71 1616.68 52.71C1638.3 52.71 1657.39 61.91 1657.39 89.97V148.62C1657.39 158.05 1658.77 162.42 1664.06 162.42C1664.98 162.42 1665.9 162.42 1667.28 162.19V173C1664.75 173.46 1662.22 173.92 1659.46 173.92C1649.57 173.92 1643.82 170.01 1642.9 155.29H1642.44C1634.39 168.63 1620.36 175.99 1601.27 175.99ZM1603.11 162.88C1627.03 162.88 1642.9 150.23 1642.9 129.07V107.22C1639.45 112.05 1627.03 114.81 1613 117.11C1590.23 121.25 1578.5 127 1578.5 141.95C1578.5 155.52 1586.09 162.88 1603.11 162.88ZM1704.23 32.24H1684.91V12.92H1704.23V32.24ZM1702.16 173H1687.21V55.7H1702.16V173ZM1785.32 52.94C1806.25 52.94 1823.73 64.67 1823.73 90.66V173H1808.78V93.88C1808.78 78.93 1801.88 66.05 1781.64 66.05C1759.33 66.05 1744.61 81.69 1744.61 98.94V173H1729.66V55.7H1744.61V72.49H1745.07C1751.74 62.83 1764.39 52.94 1785.32 52.94ZM1986.15 75.48V8.54999H2001.1V173H1986.15V153.91H1985.69C1979.02 165.41 1966.6 175.99 1946.13 175.99C1917.61 175.99 1894.61 152.99 1894.61 114.35C1894.61 75.94 1917.61 52.94 1946.13 52.94C1966.6 52.94 1978.79 63.06 1985.69 75.48H1986.15ZM1947.97 162.88C1970.51 162.88 1986.15 144.02 1986.15 114.35C1986.15 84.91 1970.51 66.05 1947.97 66.05C1923.59 66.05 1910.25 88.13 1910.25 114.35C1910.25 140.8 1923.59 162.88 1947.97 162.88ZM2131.42 109.06C2131.42 112.28 2131.42 115.5 2131.19 117.34H2038.27C2038.5 141.03 2051.15 163.34 2078.75 163.34C2102.9 163.34 2112.33 146.78 2114.63 137.12H2129.81C2124.06 158.51 2107.96 176.22 2078.52 176.22C2042.64 176.22 2022.63 150 2022.63 114.35C2022.63 76.86 2044.71 52.71 2078.52 52.71C2112.33 52.71 2131.42 76.4 2131.42 109.06ZM2038.27 104.23H2115.55C2115.55 83.3 2101.98 65.59 2077.83 65.59C2055.06 65.59 2039.42 82.38 2038.27 104.23ZM2274.28 52.94C2296.59 52.94 2308.78 66.28 2308.78 90.66V173H2293.83V93.88C2293.83 79.16 2290.38 66.05 2271.06 66.05C2250.36 66.05 2238.17 81.92 2238.17 98.94V173H2223.22V93.88C2223.22 79.16 2219.77 66.05 2200.22 66.05C2179.75 66.05 2167.33 81.92 2167.33 98.94V173H2152.38V55.7H2167.33V72.26H2167.79C2174 62.83 2185.04 52.94 2203.44 52.94C2220 52.94 2230.58 60.53 2234.95 74.56H2235.41C2243 62.83 2255.65 52.94 2274.28 52.94ZM2385.34 176.22C2350.15 176.22 2328.99 150.92 2328.99 114.58C2328.99 78.01 2350.15 52.71 2385.34 52.71C2420.53 52.71 2441.69 78.01 2441.69 114.58C2441.69 150.92 2420.53 176.22 2385.34 176.22ZM2385.34 163.11C2412.71 163.11 2426.05 141.49 2426.05 114.58C2426.05 87.44 2412.71 65.82 2385.34 65.82C2357.97 65.82 2344.63 87.44 2344.63 114.58C2344.63 141.49 2357.97 163.11 2385.34 163.11Z" fill="#0D0D3D"/>
<g clip-path="url(#clip0_127_36)">
<path fill-rule="evenodd" clip-rule="evenodd" d="M508.84 30.4844H510.495H527.798H529.453V32.1158V118.495V139.203V164.783V166.415H527.798H510.495H508.84V164.783V32.1158V30.4844ZM172.476 147.937V76.5889H194.414V58.0449H170.688C172.085 56.3259 173.202 54.4032 173.999 52.3458C175.488 48.6152 176.283 43.8406 176.206 37.4237V30.4848H156.343V37.6629C156.474 41.7371 155.639 45.7853 153.904 49.4854C151.31 54.7277 145.782 60.5246 133.764 63.3089L132.484 63.6135V76.5889H151.663V152.809C151.675 156.415 153.133 159.87 155.719 162.421C158.305 164.972 161.809 166.412 165.469 166.426H194.734V147.937H172.487H172.476ZM341.755 76.0449C349.767 64.7773 360.405 58.1863 373.272 58.1863H383.557V77.8936H371.01C362.225 77.8936 355.163 80.711 350.164 86.6492C345.165 92.5875 342.175 101.854 342.175 115.047V166.426H321.142V58.1863H341.755V76.0449ZM790.5 58.1863H810.622L813 58.2624L812.133 60.4376L759.606 194.649L758.326 194.16L758.475 194.225L759.579 194.649C758.095 198.123 755.623 201.1 752.459 203.222C749.301 205.345 745.582 206.522 741.761 206.613H718.475V188.32H741.043L750.487 164.773L709.315 60.3615L708.441 58.1863H731.619L732.018 59.2739L760.982 139.018L790.114 59.2739L790.5 58.1863ZM279.352 58.1863H281.007H300.164V166.459H280.378V153.103C272.565 163.827 261.077 168.895 247.008 168.895C232.684 168.895 222.895 164.762 216.892 157.562C210.889 150.362 208.682 140.312 208.682 128.882V58.1863H229.506V130.872C229.506 136.919 231.437 141.759 234.813 145.076C238.19 148.393 243.145 150.362 249.479 150.362C259.698 150.362 267.069 147.023 271.958 141.541C276.847 136.06 279.352 128.262 279.352 119.093V58.1863ZM655.795 55.7496C640.224 55.7496 627.39 61.4052 618.473 71.4113C609.557 81.4175 604.69 95.5566 604.69 112.403C604.69 129.251 609.734 143.488 618.794 153.396C627.853 163.304 640.864 168.862 656.413 168.862C668.783 168.862 679.411 165.36 687.717 158.91C696.03 152.46 701.91 143.162 704.979 131.72L705.528 129.664H684.092L683.692 130.752C678.97 143.575 669.247 150.59 656.413 150.59C647.187 150.59 640.08 147.175 635.026 141.454C630.248 136.016 627.247 128.468 626.143 119.539H705.684L705.853 118.092C706.029 116.208 706.097 114.316 706.063 112.426C706.063 95.6 701.402 81.4283 692.717 71.4439C684.031 61.4595 671.365 55.7496 655.795 55.7496ZM626.872 100.82C628.339 93.2073 631.385 86.6052 635.898 81.9066C638.454 79.2687 641.541 77.1877 644.962 75.7976C648.384 74.4076 652.063 73.7396 655.762 73.8365C659.282 73.7505 662.783 74.3764 666.047 75.6771C669.312 76.977 672.271 78.9232 674.743 81.3958C679.268 85.9528 682.466 92.5326 684.058 100.82H626.872ZM451.754 55.7496C437.685 55.7496 426.197 60.8179 418.384 71.5421V58.1859H398.598V166.425H419.41V105.519C419.41 96.3505 421.915 88.5521 426.804 83.0596C431.692 77.567 439.064 74.2497 449.283 74.2497C455.617 74.2497 460.571 76.2183 463.949 79.5356C467.325 82.853 469.256 87.6931 469.256 93.7398V166.436H490.08V95.7415C490.08 84.3216 487.873 74.2721 481.869 67.0717C475.867 59.8717 466.078 55.7496 451.754 55.7496ZM610.907 58.4652L556.243 112.369L610.868 166.243L583.283 166.186L543.375 126.833C539.488 122.998 537.304 117.796 537.304 112.374C537.304 106.95 539.488 101.75 543.375 97.914L583.38 58.4652H610.907Z" fill="#0D0D3D"/>
<path fill-rule="evenodd" clip-rule="evenodd" d="M65.9756 55.6523C65.9756 69.5525 54.5597 80.82 40.4774 80.82C26.3951 80.82 14.9791 69.5525 14.9791 55.6523C14.9791 41.7524 26.3951 30.4844 40.4774 30.4844C54.5597 30.4844 65.9756 41.7524 65.9756 55.6523ZM80.9714 171.425L44.676 92.979C44.3076 92.1878 43.7169 91.5178 42.9742 91.0477C42.2314 90.5776 41.3677 90.3283 40.4856 90.3283C39.6034 90.3283 38.7397 90.5776 37.997 91.0477C37.2542 91.5178 36.6637 92.1878 36.2952 92.979L0 171.425H80.9714Z" fill="#0D0D3D"/>
</g>
<defs>
<clipPath id="clip0_127_36">
<rect width="813" height="210" fill="white"/>
</clipPath>
</defs>
</svg>
